<svg width="125" height="77" viewBox="0 0 125 77" fill="none" xmlns="http://www.w3.org/2000/svg">
<g id="logo">
<g id="Group" opacity="0.25">
<path id="Vector" d="M71.879 7.34863C71.8718 7.34437 71.8823 7.35077 71.8823 7.35077L71.879 7.34863Z" fill="black"/>
<path id="Vector_2" d="M122.825 19.7961L122.827 19.8023L122.827 19.8038L122.825 19.7961Z" fill="black"/>
<path id="Vector_3" d="M110.982 76.9995C111.049 74.6072 111.262 68.4223 111.335 65.9098C120.322 65.0077 123.067 53.5622 116.909 47.947C117.995 45.8894 120.286 41.5571 121.354 39.5355L123.067 39.428C123.067 39.428 123.697 37.9323 124.152 32.7676C124.162 27.6417 123.749 20.8079 121.45 15.8732C119.061 10.0535 112.134 8.13669 106.898 11.783C105.291 10.6348 103.043 10.2197 100.884 9.90997C98.4656 9.56307 93.7464 9.75869 91.3527 9.9931C88.452 8.47195 79.0707 6.57342 74.4313 9.94932C71.7522 4.97248 63.7166 5.05228 61.1281 10.0507L57.5423 10.3583L58.0708 1.125L43.9869 1.96288L43.9493 7.33871L21.713 7.6845L21.6936 8.82162C16.4106 5.51721 8.21331 7.33095 4.4897 12.1698C1.88408 15.2271 1.3772 18.8291 0.792854 22.0237L0.810509 22.0265L0.643066 22.8838L3.82562 23.3737C1.35157 28.8116 3.89283 35.5085 10.0318 37.1211C3.96003 40.2393 1.9154 47.4405 5.47955 53.1488C4.76535 54.8595 4.72548 57.4019 5.11277 59.0439C3.30962 63.2992 4.16108 68.8618 8.36309 71.4469C15.1536 75.6069 28.6596 72.0016 30.7589 64.3327C32.6913 65.3191 34.8288 65.7663 37.427 65.8167L37.6052 67.2802L56.7512 66.418L58.5515 63.8245L59.604 66.382L73.5622 66.418L73.8691 77.0001H110.983L110.982 76.9995Z" fill="black"/>
</g>
<path id="Vector_4" d="M71.2364 6.22315C71.2293 6.21888 71.2397 6.22528 71.2397 6.22528L71.2364 6.22315Z" fill="#015122"/>
<path id="Vector_5" d="M122.183 18.6711L122.184 18.6773V18.6788L122.183 18.6711Z" fill="#015122"/>
<path id="Vector_6" d="M110.34 75.8745C110.407 73.4822 110.62 67.2973 110.692 64.7848C119.68 63.8827 122.424 52.4372 116.267 46.822C117.353 44.7644 119.644 40.4321 120.711 38.4105L122.424 38.303C122.424 38.303 123.055 36.8073 123.509 31.6426C123.52 26.5167 123.107 19.6829 120.808 14.7482C118.419 8.9285 111.491 7.01169 106.255 10.658C104.649 9.50981 102.4 9.09475 100.241 8.78497C97.8231 8.43807 93.1039 8.63369 90.7102 8.8681C87.8095 7.34695 78.4282 5.44842 73.7888 8.82432C71.1097 3.84748 63.0741 3.92728 60.4856 8.92573L56.8998 9.23328L57.4278 0L43.3438 0.837878L43.3062 6.21371L21.0699 6.5595L21.0505 7.69662C15.7675 4.39276 7.57024 6.20595 3.84663 11.0448C1.24101 14.1021 0.734698 17.7041 0.149787 20.8987L0.167443 20.9015L0 21.7588L3.18255 22.2487C0.7085 27.6865 3.24976 34.3835 9.38876 35.9961C3.31696 39.1143 1.27234 46.3155 4.83648 52.0238C4.12228 53.7345 4.08242 56.2769 4.4697 57.9189C2.66656 62.1742 3.51801 67.7368 7.72003 70.3219C14.5106 74.4825 28.0165 70.8766 30.1158 63.2077C32.0482 64.1941 34.1857 64.6413 36.7839 64.6917L36.9622 66.1552L55.873 65.293L57.6174 62.3393L58.7947 65.293H72.603L73.2488 75.8751H110.34V75.8745Z" fill="#1F1F1F"/>
<path id="Vector_7" d="M20.9536 40.2475C20.9536 40.2475 21.7714 38.3268 23.1616 37.7688L27.42 41.1791C27.42 41.1791 25.2177 42.0757 24.8685 43.3197C24.8685 43.3197 28.042 47.9597 24.7136 52.0332C22.0431 55.3022 14.6545 54.0271 14.6545 54.0271C14.6545 54.0271 12.5729 55.152 12.9089 57.0749C12.9089 57.0749 21.4229 54.2897 24.889 57.9133C28.4053 61.5885 25.8703 65.4687 20.0144 67.4126C12.2727 69.9817 4.72072 67.1306 8.77751 59.3979C8.77751 59.3979 7.02619 54.8993 10.2703 52.3098C10.2703 52.3098 5.14559 48.9255 7.99838 43.8146C11.8387 36.9276 20.953 40.2475 20.953 40.2475H20.9536ZM12.6794 46.3753C12.1708 48.9954 19.1379 50.214 20.4746 48.2434C21.2013 47.1689 19.8982 44.745 17.3997 44.1355C14.4575 43.4173 12.9784 44.8237 12.6788 46.3759L12.6794 46.3753ZM13.0672 62.4618C12.8275 65.0846 21.1654 63.4693 21.0532 61.3984C20.9484 59.5392 13.2529 60.4314 13.0672 62.4618Z" fill="black"/>
<path id="Vector_8" d="M12.677 55.926C12.3404 54.0026 14.4215 52.8777 14.4215 52.8777C14.4215 52.8777 21.8112 54.1528 24.4812 50.8838C27.8095 46.8097 24.6361 42.1703 24.6361 42.1703C24.9858 40.9257 27.1876 40.0296 27.1876 40.0296L22.9286 36.6194C21.5395 37.1774 20.7217 39.0981 20.7217 39.0981C20.7217 39.0981 11.6069 35.7787 7.76652 42.6652C4.91373 47.7767 10.0378 51.1603 10.0378 51.1603C6.79319 53.7504 8.54564 58.2485 8.54564 58.2485C4.48885 65.9817 12.0409 68.8328 19.782 66.2632C25.6379 64.3187 28.1729 60.4391 24.6566 56.7639C21.1904 53.1409 12.677 55.926 12.677 55.926ZM12.4469 45.2265C12.7465 43.6743 14.2245 42.2673 17.1667 42.986C19.6652 43.5956 20.9689 46.02 20.2416 47.0945C18.9049 49.064 11.9372 47.8465 12.4469 45.2265ZM12.8354 61.3124C13.0205 59.2826 20.716 58.3898 20.8202 60.2495C20.9336 62.3204 12.5956 63.9352 12.8354 61.3124Z" fill="#FFD300"/>
<path id="Vector_9" d="M9.3609 51.8193C7.07365 54.4455 8.54533 58.2486 8.54533 58.2486C7.91144 59.4556 7.56174 60.5456 7.45068 61.5126C7.77987 59.6589 8.85458 58.3816 8.85458 58.3816C7.83854 54.8378 8.70764 52.7736 9.3609 51.8193Z" fill="#9D8200"/>
<path id="Vector_10" d="M24.6991 57.1941C25.4965 58.0031 25.9908 58.8144 26.2129 59.6085C26.0637 58.672 25.562 57.7116 24.6564 56.764C21.6003 53.5705 14.6246 55.3548 13.0151 55.8242C15.6037 55.2667 21.8486 54.3042 24.6991 57.1941Z" fill="#FFED9B"/>
<path id="Vector_11" d="M20.82 60.7887C20.816 60.7128 20.7944 60.6419 20.7648 60.5737C20.1081 62.3753 13.4115 63.6482 12.8699 61.6859C12.8539 61.7413 12.8403 61.7956 12.8352 61.8527C12.5954 64.4755 20.9333 62.8613 20.82 60.7893V60.7887Z" fill="#FFED9B"/>
<path id="Vector_12" d="M19.7822 65.4559C13.7361 67.4625 7.80493 66.1624 7.43074 61.8124C7.1101 66.8019 13.3778 68.3901 19.7822 66.2639C24.0258 64.8547 26.5238 62.4286 26.2402 59.8008C25.9879 62.1122 23.5873 64.193 19.7822 65.4559Z" fill="#9D8200"/>
<path id="Vector_13" d="M12.4527 45.7735C12.451 45.7824 12.4476 45.7912 12.4465 45.8001C11.9373 48.4207 18.905 49.6387 20.2411 47.6687C20.4245 47.3977 20.4775 47.0397 20.4165 46.648C20.3863 46.8125 20.3288 46.9638 20.2411 47.0946C19.0018 48.9227 12.9232 48.0062 12.4522 45.7729L12.4527 45.7735Z" fill="#FFED9B"/>
<path id="Vector_14" d="M14.5203 52.1606C14.5203 52.1606 12.6983 53.1459 12.7405 54.8482C13.1107 53.5908 14.4217 52.8776 14.4217 52.8776C14.4217 52.8776 21.8114 54.1527 24.4814 50.8838C25.4707 49.6735 25.883 48.4123 25.977 47.238C25.7908 48.1995 25.3704 49.1992 24.5794 50.1667C21.9088 53.4357 14.5203 52.1606 14.5203 52.1606Z" fill="#9D8200"/>
<path id="Vector_15" d="M7.05031 44.4773C6.10318 48.5487 10.0119 51.1443 10.0358 51.1598C10.1303 51.0767 10.2192 50.9908 10.3189 50.911C10.3189 50.911 6.69435 48.2777 7.05088 44.4773H7.05031Z" fill="#9D8200"/>
<path id="Vector_16" d="M20.7214 39.8628C20.7214 39.8628 21.5392 37.9427 22.9283 37.3836L26.5904 40.3156C26.9344 40.1327 27.1873 40.0296 27.1873 40.0296L22.9283 36.6194C21.5392 37.1774 20.7214 39.0981 20.7214 39.0981C20.7214 39.0981 11.6065 35.7787 7.76618 42.6652C7.06053 43.9309 6.84411 45.0902 6.91587 46.1176C6.97567 45.2902 7.22968 44.3914 7.76618 43.431C11.6065 36.5429 20.7214 39.8628 20.7214 39.8628Z" fill="#FFED9B"/>
<path id="Vector_17" d="M17.1671 42.2226C14.2248 41.5038 12.7463 42.9097 12.4473 44.4614C12.4035 44.6869 12.4183 44.9002 12.4764 45.1031C12.8295 43.6019 14.3029 42.2874 17.1671 42.9868C18.9805 43.4284 20.1582 44.8243 20.394 45.9692C20.6925 44.7878 19.4167 42.7706 17.1671 42.2226Z" fill="#9D8200"/>
<path id="Vector_18" d="M20.7114 59.9293C20.7872 59.7846 20.8282 59.6367 20.8197 59.4854C20.7154 57.6251 13.0199 58.5184 12.8348 60.5477C12.8177 60.7339 12.8479 60.8957 12.9111 61.0409C13.6623 59.3297 19.8144 58.5777 20.7114 59.9293Z" fill="#9D8200"/>
<path id="Vector_19" d="M27.2618 46.6774C27.2618 46.6774 28.7694 38.9314 37.0857 38.6749C45.1679 38.426 46.0456 46.0357 46.2364 62.2402L40.3793 62.3432L40.1777 60.6863C40.1777 60.6863 30.2422 62.6026 28.9465 55.9505C27.8854 50.4849 34.3667 47.6638 39.9322 48.5908C39.9322 48.5908 40.7899 44.9296 37.3556 44.2435C34.0028 43.5758 32.7703 47.5247 32.7703 47.5247L27.2612 46.6768L27.2618 46.6774ZM33.8069 54.7364C33.7949 57.4445 40.455 56.359 40.455 56.359L40.4334 53.4159C40.4334 53.4159 33.8194 51.7944 33.8074 54.7364H33.8069Z" fill="black"/>
<path id="Vector_20" d="M37.234 37.8143C28.9183 38.0708 27.4102 45.8162 27.4102 45.8162L32.9193 46.6652C32.9193 46.6652 34.1517 42.7146 37.5034 43.3824C40.9383 44.069 40.0806 47.7291 40.0806 47.7291C34.5145 46.8026 28.0332 49.6243 29.0943 55.0899C30.3911 61.7414 40.3266 59.8246 40.3266 59.8246L40.5271 61.4826L46.3842 61.379C46.1928 45.1751 45.3152 37.5654 37.2335 37.8143H37.234ZM33.9552 53.8752C33.9666 50.9333 40.5806 52.5536 40.5806 52.5536L40.6023 55.4978C40.6023 55.4978 33.9427 56.5828 33.9552 53.8752Z" fill="#DD3C3D"/>
<path id="Vector_21" d="M40.5836 52.917L40.6024 55.4977C40.6024 55.4977 34.6764 56.3716 33.9702 54.2303C34.3677 57.2987 40.9766 55.9787 40.9766 55.9787L40.5831 52.917H40.5836Z" fill="#DD8081"/>
<path id="Vector_22" d="M40.2773 48.2078C40.2773 48.2078 40.6207 46.7266 39.9885 45.4714C40.3445 46.5953 40.0814 47.7291 40.0814 47.7291C34.5153 46.8025 28.034 49.6243 29.0951 55.0899C29.1953 55.6047 29.3531 56.0629 29.5484 56.4797C29.4453 56.1937 29.3548 55.8939 29.2916 55.567C28.2311 50.1019 34.7124 47.2807 40.2779 48.2078H40.2773Z" fill="#DD8081"/>
<path id="Vector_23" d="M37.554 42.7612C34.2006 42.0929 32.672 46.177 32.672 46.177L27.4317 45.7203C27.4175 45.7807 27.4106 45.8162 27.4106 45.8162L32.9197 46.6652C32.9197 46.6652 34.1522 42.7146 37.5039 43.3824C39.8578 43.8523 40.1961 45.7192 40.175 46.848C40.2952 46.0085 40.4404 43.3364 37.554 42.7612Z" fill="#992A2A"/>
<path id="Vector_24" d="M40.924 60.7351L40.6672 59.0854C40.6672 59.0854 30.8017 61.3197 29.2799 54.7137C29.0868 53.8697 29.0777 53.0833 29.2213 52.3596C28.961 53.1764 28.9006 54.088 29.0948 55.0899C30.3917 61.7414 40.3272 59.8246 40.3272 59.8246L40.5276 61.4826L46.3847 61.379C46.3807 61.0692 46.3768 60.7678 46.3722 60.4641L40.924 60.7351Z" fill="#992A2A"/>
<path id="Vector_25" d="M40.5805 52.5536V51.7883C40.5805 51.7883 33.9665 50.1674 33.9551 53.1089C33.954 53.2446 33.9745 53.3665 34.0052 53.4846C34.5924 51.0873 40.5805 52.5531 40.5805 52.5531V52.5536Z" fill="#992A2A"/>
<path id="Vector_26" d="M37.234 37.8143C28.9183 38.0708 27.4102 45.8162 27.4102 45.8162L27.6693 45.8561C28.3675 43.7985 30.6969 38.9719 37.2335 38.7702C45.154 38.5274 46.1552 45.8356 46.3711 61.379H46.3842C46.1928 45.1751 45.3152 37.5654 37.2335 37.8143H37.234Z" fill="#DD8081"/>
<path id="Vector_27" d="M48.9069 61.9215L54.8341 61.4633L54.4268 49.1284C54.4268 49.1284 55.2492 45.9631 57.7894 46.4269C60.0869 46.8447 60.0305 54.5679 60.2344 61.2455L66.1723 61.271C66.1723 61.271 65.0441 46.4075 68.2807 46.6502C71.158 46.8619 70.9991 61.4705 70.9991 61.4705L76.3875 61.1324C76.5025 60.7927 77.2395 42.0574 70.535 40.3362C65.5293 39.0511 62.7682 43.9587 62.7682 43.9587C62.7682 43.9587 61.8581 40.5584 58.0468 40.3174C55.0271 40.1279 53.4176 41.9959 53.4176 41.9959L53.4279 39.6191L47.8823 40.1617L48.9075 61.9221L48.9069 61.9215Z" fill="black"/>
<path id="Vector_28" d="M48.9069 60.7733L54.8341 60.315L54.4268 47.979C54.4268 47.979 55.2492 44.8143 57.7894 45.2781C60.0869 45.6959 60.0305 53.4192 60.2344 60.0972L66.1723 60.1216C66.1723 60.1216 65.0441 45.2587 68.2807 45.5009C71.158 45.712 70.9991 60.3211 70.9991 60.3211L76.3875 59.9825C76.5025 59.6434 77.2395 40.9081 70.535 39.1869C65.5293 37.9012 62.7682 42.8088 62.7682 42.8088C62.7682 42.8088 61.8581 39.4091 58.0468 39.1675C55.0271 38.9779 53.4176 40.8465 53.4176 40.8465L53.4279 38.4692L47.8823 39.0118L48.9075 60.7733H48.9069Z" fill="#4AA4E8"/>
<path id="Vector_29" d="M57.7888 44.3694C55.2487 43.9056 54.4263 47.0709 54.4263 47.0709L54.453 47.8877C54.6057 47.389 55.497 44.8609 57.7888 45.2788C58.8009 45.4628 59.355 47.0631 59.6774 49.3657C59.4313 46.5833 58.9262 44.5761 57.7888 44.3694Z" fill="#387CB0"/>
<path id="Vector_30" d="M66.1716 60.1222C66.1716 60.1222 66.146 59.7819 66.1135 59.2134L60.208 59.2306C60.216 59.5209 60.2245 59.8108 60.2336 60.0978L66.1716 60.1222Z" fill="#387CB0"/>
<path id="Vector_31" d="M54.8338 60.3151L54.8042 59.408L48.8628 59.8308L48.9072 60.7734L54.8338 60.3151Z" fill="#387CB0"/>
<path id="Vector_32" d="M68.2802 44.5921C66.3062 44.4441 65.9565 49.9108 65.9839 54.2011C66.0129 50.0865 66.4446 45.3634 68.2802 45.5009C69.3145 45.5768 69.9564 47.518 70.3533 49.9684C70.0429 47.1024 69.4375 44.6768 68.2802 44.5915V44.5921Z" fill="#387CB0"/>
<path id="Vector_33" d="M76.4643 57.0256C76.4547 58.2326 76.4085 59.0078 76.3869 59.0738L70.9985 59.4439C71.002 59.9931 70.9985 60.3217 70.9985 60.3217L76.3869 59.9831C76.4142 59.9011 76.4769 58.7468 76.4643 57.0256Z" fill="#387CB0"/>
<path id="Vector_34" d="M53.4274 38.4692L47.8818 39.0118L47.9263 39.9649L53.4228 39.4263L53.4274 38.4692Z" fill="#8BC0E8"/>
<path id="Vector_35" d="M70.5343 39.1874C65.5287 37.9017 62.7676 42.8093 62.7676 42.8093C62.7676 42.8093 61.8575 39.4096 58.0462 39.168C55.0698 38.9818 53.4665 40.7894 53.421 40.8415L53.417 41.803C53.417 41.803 55.0271 39.9355 58.0462 40.125C61.8575 40.3666 62.7676 43.7663 62.7676 43.7663C62.7676 43.7663 65.5287 38.8577 70.5343 40.1433C75.6168 41.4478 76.4227 52.5236 76.4643 57.9576C76.5064 53.0024 75.9369 40.5739 70.5343 39.1874Z" fill="#8BC0E8"/>
<path id="Vector_36" d="M92.0156 52.0666C90.9916 54.9082 89.1873 55.7434 87.5032 55.5488C84.5815 55.208 84.1082 51.9518 84.1082 51.9518L97.3015 48.5732C94.4003 33.0287 79.5281 37.4818 78.311 46.8935C77.3912 54.0127 79.9831 61.0987 87.7214 61.1929C93.5488 61.2633 96.319 57.0899 97.4017 54.2782L92.0145 52.066L92.0156 52.0666ZM86.5083 43.5725C89.9619 42.5163 91.0725 45.6982 91.0725 45.6982L83.7517 47.9741C83.5547 45.7692 84.5867 44.1616 86.5083 43.5725Z" fill="black"/>
<path id="Vector_37" d="M92.0156 50.9176C90.9916 53.7593 89.1873 54.5944 87.5032 54.3994C84.5815 54.0586 84.1082 50.8029 84.1082 50.8029L97.3015 47.4237C94.4003 31.8803 79.5281 36.3329 78.311 45.7457C77.3912 52.8644 79.9831 59.9509 87.7214 60.0445C93.5488 60.1149 96.319 55.9416 97.4017 53.1298L92.0145 50.9176H92.0156ZM86.5083 42.4236C89.9619 41.3674 91.0725 44.5499 91.0725 44.5499L83.7517 46.8252C83.5547 44.6197 84.5867 43.0126 86.5083 42.4236Z" fill="#D36DE7"/>
<path id="Vector_38" d="M83.9614 50.2295C83.9614 50.2295 84.0019 50.491 84.1203 50.8695C84.1135 50.8307 84.1084 50.8036 84.1084 50.8036L97.3016 47.4243C97.19 46.8214 97.0527 46.2595 96.9064 45.7153C96.9946 46.0844 97.0812 46.4573 97.1552 46.8508L83.9614 50.2295Z" fill="#944DA2"/>
<path id="Vector_39" d="M87.7983 54.9015C89.4824 55.0966 91.2867 54.2615 92.3107 51.4198L97.2685 53.4563C97.314 53.3466 97.3624 53.2352 97.4029 53.1299L92.0157 50.9177C90.9916 53.7594 89.1874 54.5945 87.5032 54.3995C86.2315 54.2521 85.4239 53.5499 84.917 52.8063C85.3817 53.7101 86.2394 54.7209 87.7983 54.9021V54.9015Z" fill="#DA98E7"/>
<path id="Vector_40" d="M87.8694 59.1119C80.2313 59.0188 77.6092 52.1135 78.4271 45.0891C78.3832 45.3047 78.3399 45.5225 78.3114 45.7458C77.3917 52.8644 79.9836 59.9509 87.7219 60.0446C93.5493 60.115 96.3195 55.9416 97.4022 53.1299L97.1852 53.0401C95.9026 55.7726 93.1387 59.1762 87.8694 59.1125V59.1119Z" fill="#944DA2"/>
<path id="Vector_41" d="M83.7401 46.2862C83.7481 44.3616 84.7488 42.9641 86.5081 42.4243C88.8198 41.7183 90.0773 42.9064 90.6594 43.7715C90.3029 43.0239 89.0755 41.0589 86.3167 41.9212C84.4389 42.5102 83.4309 44.1178 83.6228 46.3245L83.7401 46.2862Z" fill="#944DA2"/>
<path id="Vector_42" d="M83.7401 46.286C83.739 46.4645 83.7345 46.6401 83.7521 46.8258L91.0729 44.5504C91.0729 44.5504 90.9476 44.1997 90.66 43.7708C90.7391 43.9376 90.7756 44.0456 90.7756 44.0456L83.7407 46.286H83.7401Z" fill="#DA98E7"/>
<path id="Vector_43" d="M97.104 47.4754L97.3022 47.4244C94.401 31.881 79.5287 36.3336 78.3117 45.7465C78.1721 46.8193 78.1163 47.8927 78.1425 48.94C78.1596 48.2008 78.2148 47.4521 78.3117 46.7024C79.5043 37.4813 93.7967 33.032 97.1034 47.476L97.104 47.4754Z" fill="#DA98E7"/>
<path id="Vector_44" d="M112.965 44.8663L115.626 39.8296C115.626 39.8296 106.321 35.6862 101.117 40.32C97.6079 43.4521 98.3381 47.6847 102.82 50.5818C106.793 53.152 109.37 52.7685 108.741 54.9402C108.229 56.7069 103.755 55.3969 101.043 53.6795L98.1621 59.164C98.1621 59.164 110.404 63.9197 114.295 58.9373C117.041 55.4163 115.324 51.464 112.26 49.6802C108.773 47.6509 105.025 47.5844 105.444 44.812C105.825 42.2851 112.965 44.8663 112.965 44.8663Z" fill="black"/>
<path id="Vector_45" d="M112.965 43.7171L115.626 38.6799C115.626 38.6799 106.321 34.5371 101.117 39.1714C97.6079 42.3024 98.3381 46.535 102.82 49.4321C106.793 52.0017 109.37 51.6188 108.741 53.7905C108.229 55.5566 103.755 54.2471 101.043 52.5298L98.1621 58.0148C98.1621 58.0148 110.404 62.7706 114.295 57.7882C117.041 54.2665 115.324 50.3149 112.26 48.5311C108.773 46.5018 105.025 46.4353 105.444 43.6623C105.825 41.1354 112.965 43.7166 112.965 43.7166V43.7171Z" fill="#7AB31D"/>
<path id="Vector_46" d="M112.965 43.7171L115.626 38.6799C115.626 38.6799 106.321 34.5371 101.117 39.1714C97.6079 42.3024 98.3381 46.535 102.82 49.4321C106.793 52.0017 109.37 51.6188 108.741 53.7905C108.229 55.5566 103.755 54.2471 101.043 52.5298L98.1621 58.0148C98.1621 58.0148 110.404 62.7706 114.295 57.7882C117.041 54.2665 115.324 50.3149 112.26 48.5311C108.773 46.5018 105.025 46.4353 105.444 43.6623C105.825 41.1354 112.965 43.7166 112.965 43.7166V43.7171Z" fill="#7AB31D"/>
<path id="Vector_47" d="M105.396 43.0893C105.344 43.4312 105.356 43.7305 105.423 43.9998C105.426 43.8901 105.427 43.7826 105.444 43.6634C105.825 41.1365 112.964 43.7177 112.964 43.7177L115.626 38.6805C115.626 38.6805 115.521 38.635 115.336 38.5608L112.914 43.1436C112.914 43.1436 105.775 40.5624 105.395 43.0893H105.396Z" fill="#5B871A"/>
<path id="Vector_48" d="M112.26 49.2022C114.153 50.3038 115.528 52.2328 115.658 54.3763C115.807 51.9701 114.349 49.7474 112.26 48.5316C109.095 46.6885 105.728 46.4585 105.443 44.3611C105.055 47.1052 108.785 47.1789 112.26 49.2016V49.2022Z" fill="#ABC284"/>
<path id="Vector_49" d="M102.918 48.7637C100.185 46.9965 98.8559 44.7322 99.0245 42.5261C98.5016 44.9383 99.8098 47.4869 102.82 49.4325C106.342 51.7101 108.76 51.6719 108.828 53.1448C108.831 53.137 108.836 53.1309 108.839 53.1221C109.468 50.9503 106.892 51.3322 102.918 48.7637Z" fill="#5B871A"/>
<path id="Vector_50" d="M115.613 53.2834C115.611 54.5092 115.206 55.7926 114.245 57.0234C110.758 61.491 100.567 58.1339 98.4907 57.3897L98.1621 58.0154C98.1621 58.0154 110.404 62.7711 114.295 57.7887C115.457 56.2975 115.813 54.7314 115.613 53.2834Z" fill="#5B871A"/>
<path id="Vector_51" d="M108.753 53.7306C108.747 53.7522 108.747 53.7699 108.74 53.791C108.228 55.5571 103.755 54.2476 101.042 52.5303L99.3853 55.6856L101.042 53.4878C103.755 55.2035 108.403 56.2658 108.752 53.7306H108.753Z" fill="#ABC284"/>
<path id="Vector_52" d="M115.21 39.4662L115.626 38.6799C115.626 38.6799 106.321 34.5371 101.117 39.1714C99.4929 40.6211 98.7878 42.3074 98.9325 43.987C99.0811 42.6316 99.8016 41.3016 101.117 40.1285C105.667 36.0765 113.349 38.7348 115.21 39.4662H115.21Z" fill="#ABC284"/>
<path id="Vector_53" d="M70.9081 12.8425C70.9081 12.8397 70.907 12.8369 70.9064 12.8336C70.8984 12.7898 70.8893 12.7472 70.8796 12.7039C70.8768 12.6923 70.8745 12.6801 70.8717 12.6685C70.8626 12.6291 70.8523 12.5898 70.8415 12.551C70.8375 12.536 70.8335 12.5211 70.8289 12.5061C70.8181 12.469 70.8073 12.4324 70.7953 12.3958C70.7902 12.3792 70.7845 12.3631 70.7788 12.3465C70.7669 12.311 70.7549 12.2761 70.7418 12.2412C70.7355 12.2246 70.7287 12.2074 70.7224 12.1908C70.7088 12.1564 70.6957 12.1221 70.6809 12.0883C70.674 12.0722 70.6666 12.0567 70.6592 12.0406C70.612 11.9337 70.559 11.8295 70.502 11.7281C70.4878 11.7031 70.4741 11.6782 70.4593 11.6538C70.4462 11.6316 70.4326 11.61 70.4189 11.5884C70.4024 11.5624 70.3859 11.5358 70.3688 11.5097C70.3557 11.4898 70.342 11.4698 70.3283 11.4499C70.3095 11.4227 70.2907 11.3956 70.2714 11.369C70.2583 11.3507 70.2446 11.333 70.2309 11.3152C70.2093 11.287 70.1871 11.2587 70.1649 11.231C70.1523 11.2155 70.1398 11.2 70.1273 11.185C70.1011 11.154 70.0749 11.1229 70.0476 11.093C70.0373 11.0819 70.0276 11.0703 70.0179 11.0592C69.9815 11.0193 69.9445 10.98 69.9063 10.9417C69.9052 10.9406 69.904 10.9395 69.9029 10.9378C69.8197 10.8547 69.7326 10.7755 69.642 10.7001C69.6381 10.6968 69.6341 10.694 69.6301 10.6907C69.5896 10.6574 69.5486 10.6248 69.5065 10.5932C69.4991 10.5876 69.4911 10.5821 69.4837 10.576C69.4444 10.5472 69.4051 10.5189 69.3647 10.4912C69.3561 10.4851 69.347 10.479 69.3385 10.4735C69.298 10.4463 69.2565 10.4197 69.2149 10.3942C69.2069 10.3892 69.1989 10.3842 69.191 10.3793C69.146 10.3521 69.1004 10.3255 69.0537 10.3C69.0492 10.2972 69.0446 10.295 69.04 10.2923C68.8823 10.2064 68.7171 10.131 68.5457 10.0673C68.544 10.0667 68.5428 10.0662 68.5411 10.0656C68.4876 10.0462 68.4341 10.0274 68.3794 10.0102C68.3691 10.0069 68.3589 10.0041 68.3481 10.0008C68.3019 9.98637 68.2558 9.97307 68.2085 9.96032C68.1943 9.95644 68.18 9.95312 68.1658 9.94924C68.122 9.93816 68.0781 9.92763 68.0337 9.91765C68.0177 9.91433 68.0012 9.91045 67.9853 9.90712C67.942 9.89826 67.8981 9.88995 67.8537 9.88274C67.8372 9.87997 67.8207 9.87665 67.8042 9.87443C67.758 9.86723 67.7113 9.86113 67.6646 9.85559C67.6504 9.85393 67.6356 9.85171 67.6213 9.85005C67.5604 9.8434 67.4989 9.83786 67.4368 9.83398C67.3747 9.8301 67.3132 9.82844 67.2517 9.82788C67.234 9.82788 67.217 9.82788 67.1993 9.82788C67.1555 9.82788 67.1116 9.82788 67.0683 9.8301C67.0472 9.83065 67.0262 9.83231 67.0051 9.83342C66.9658 9.83564 66.9259 9.83786 66.8866 9.84118C66.8644 9.84284 66.8416 9.84561 66.8194 9.84783C66.7818 9.85171 66.7448 9.85559 66.7078 9.86058C66.6845 9.86335 66.6617 9.86667 66.6383 9.87C66.6024 9.87554 66.5671 9.88108 66.5318 9.88717C66.5079 9.89161 66.484 9.89549 66.4606 9.90047C66.4265 9.90712 66.3929 9.91433 66.3592 9.92209C66.3348 9.92763 66.3103 9.93317 66.2858 9.93871C66.2545 9.94647 66.2231 9.95478 66.1918 9.96365C66.1662 9.97085 66.14 9.9775 66.1143 9.98471C66.0887 9.99246 66.0631 10.0008 66.0375 10.0091C65.9087 10.0501 65.7823 10.0972 65.6599 10.151C65.6553 10.1532 65.6507 10.1548 65.6468 10.1565C65.6018 10.1764 65.5573 10.1975 65.5129 10.2197C65.5084 10.2219 65.5032 10.2241 65.4987 10.2263C65.4526 10.249 65.4076 10.2729 65.3626 10.2972C65.3609 10.2984 65.3591 10.2989 65.3574 10.3C64.2827 10.8902 63.527 11.9802 63.4472 13.2675C63.3191 15.2846 64.8978 17.0247 66.9721 17.1477C69.0497 17.2746 70.8352 15.7368 70.9588 13.718C70.9782 13.4182 70.9588 13.1251 70.907 12.8425H70.9081Z" fill="black"/>
<path id="Vector_54" d="M63.9199 19.1438L70.2902 19.5273L69.9057 34.7753L64.772 35.0602C64.772 35.0602 63.4649 26.3395 63.9199 19.1438Z" fill="black"/>
<path id="Vector_55" d="M70.9227 12.7185C70.7996 14.7372 69.0136 16.2745 66.9359 16.1481C64.8617 16.0251 63.2829 14.2856 63.4111 12.2679C63.537 10.2486 65.3236 8.7125 67.4001 8.83497C69.4749 8.96242 71.0531 10.7008 70.9221 12.7185H70.9227Z" fill="#ACACAC"/>
<path id="Vector_56" d="M67.0091 14.7875C68.8623 14.9011 70.4798 13.688 70.8956 11.9934C70.6598 10.2988 69.2223 8.9456 67.4009 8.83477C65.5482 8.72505 63.9307 9.93809 63.5127 11.6338C63.7502 13.3273 65.1888 14.6794 67.0091 14.7875Z" fill="white"/>
<path id="Vector_57" opacity="0.6" d="M67.3349 10.0722C69.1791 10.1853 70.6274 11.5717 70.8353 13.2952C70.878 13.1079 70.911 12.9161 70.923 12.7177C71.0534 10.7001 69.4758 8.96114 67.401 8.83424C65.3245 8.71177 63.5373 10.2479 63.412 12.2672C63.3972 12.4916 63.408 12.7122 63.4342 12.9278C63.8294 11.2021 65.4623 9.96138 67.3349 10.0722Z" fill="#FAFFF4"/>
<path id="Vector_58" d="M63.9859 17.9053L70.3561 18.2882L69.9716 33.5362L64.8379 33.8211C64.8379 33.8211 63.5308 25.1004 63.9859 17.9053Z" fill="white"/>
<path id="Vector_59" opacity="0.6" d="M70.3561 18.2882L63.9858 17.9053C63.9665 18.2123 63.9517 18.522 63.938 18.8346L70.3321 19.2186L70.3561 18.2882Z" fill="#FAFFF4"/>
<path id="Vector_60" d="M64.6792 32.6562C64.7732 33.3949 64.8375 33.8211 64.8375 33.8211L69.9713 33.5362L69.9992 32.4263L64.6792 32.6562Z" fill="#ACACAC"/>
<path id="Vector_61" d="M36.8752 35.1077L36.6143 32.8473C34.0383 34.5391 31.9202 35.3848 30.2612 35.3848C28.6021 35.3848 27.4556 34.5546 26.7289 32.8938C25.2749 29.5723 24.7526 22.038 24.8791 10.2889L30.4269 10.0811C30.3158 12.849 30.2612 15.2862 30.2612 17.3931C30.2612 25.082 31.0278 28.9261 32.5609 28.9261C33.43 28.9261 34.552 27.8189 35.9269 25.6045L36.0755 10.7039H41.4269L40.6682 34.8312L36.8752 35.1082V35.1077Z" fill="black"/>
<path id="Vector_62" d="M36.332 10.4569V25.3591C36.201 25.5681 36.0723 25.7692 35.9465 25.9593C34.7465 27.7725 33.7515 28.6785 32.9655 28.6785C32.4826 28.6785 32.0736 28.2962 31.7422 27.5292C30.8531 26.1327 30.4083 22.508 30.4083 16.6529C30.4083 14.6751 30.4573 12.4058 30.5535 9.84399L25.1424 10.0429C25.1396 10.2779 25.1373 10.5117 25.1361 10.7445C25.0422 22.0924 25.7091 29.3912 27.1329 32.6474C27.1512 32.6873 27.1688 32.7272 27.187 32.7659C27.9206 34.0189 28.9947 34.6451 30.4083 34.6451C32.0685 34.6451 34.186 33.8 36.7626 32.1082L36.8332 32.7222L37.0223 34.3691L37.2216 34.3541L40.452 34.1181L40.8154 34.092L41.5592 10.458H36.332V10.4569Z" fill="#FAFFF4"/>
<path id="Vector_63" d="M36.0752 9.96418V24.8664C35.9442 25.0754 35.8155 25.2765 35.6896 25.4666C34.4896 27.2798 33.4946 28.1858 32.7087 28.1858C32.2257 28.1858 31.8168 27.8034 31.4853 27.0365C30.7683 25.3763 30.4083 21.9139 30.4083 16.6528C30.4083 14.5459 30.4636 12.1093 30.5741 9.34131L30.2967 9.35128L24.8856 9.55022C24.8827 9.78518 24.8804 10.019 24.8793 10.2518C24.7853 21.5997 25.4523 28.8984 26.8761 32.1546C26.8943 32.1945 26.912 32.2344 26.9302 32.2732C27.6598 33.8548 28.8205 34.645 30.4089 34.645C31.9973 34.645 34.0841 33.8398 36.577 32.2295C36.6385 32.1896 36.7006 32.1497 36.7632 32.1081L36.9648 33.8609L37.0229 34.3685L40.4526 34.1186L40.816 34.0909L41.5752 9.96418H36.0752Z" fill="white"/>
<path id="Vector_64" opacity="0.6" d="M36.0752 9.96411H41.5752L41.5598 10.4568H36.0752V9.96411Z" fill="#FAFFF4"/>
<path id="Vector_65" opacity="0.6" d="M36.0752 18.0864L36.3321 25.3591C36.2011 25.568 36.0723 25.7692 35.9465 25.9593C34.7465 27.7725 33.7515 28.6785 32.9655 28.6785C32.4826 28.6785 32.0737 28.2961 31.7422 27.5292C32.0213 27.967 32.3436 28.1858 32.7087 28.1858C33.4952 28.1858 34.4896 27.2793 35.6896 25.4666C35.8155 25.2765 35.9442 25.0754 36.0752 24.8654V18.0864Z" fill="#FAFFF4"/>
<path id="Vector_66" opacity="0.6" d="M25.1362 10.7444C25.0422 22.0923 25.7091 29.3911 27.133 32.6473C27.1512 32.6872 27.1688 32.7271 27.1871 32.7659C27.0754 32.5769 26.9712 32.3735 26.8761 32.1546C25.4523 28.899 24.7853 21.5997 24.8793 10.2518C24.8804 10.019 24.8833 9.78518 24.8856 9.54912L30.5741 9.34131C30.5678 9.51033 30.561 9.67768 30.5536 9.84392L25.1424 10.0429C25.1396 10.2778 25.1373 10.5117 25.1362 10.7444Z" fill="#FAFFF4"/>
<path id="Vector_67" d="M40.8382 33.401L40.8166 34.0909L37.0235 34.3685L36.7638 32.1081C34.1872 33.8 32.0697 34.645 30.4095 34.645C28.7493 34.645 27.6045 33.8149 26.8773 32.1547C25.4238 28.8325 25.0992 22.5302 24.9551 18.0864C24.9551 18.0864 25.3486 26.714 27.2628 31.4382C27.9434 33.1172 29.1673 33.9285 30.7951 33.9285C32.4228 33.9285 34.5728 33.0834 37.1494 31.3916L37.4091 33.652L40.8388 33.401H40.8382Z" fill="#ACACAC"/>
<path id="Vector_68" d="M92.0959 35.5129L98.023 35.0546L97.6158 22.7198C97.6158 22.7198 98.4382 19.5544 100.978 20.0183C103.276 20.4361 103.219 28.1593 103.423 34.8369L109.361 34.8623C109.361 34.8623 108.233 19.9989 111.47 20.2416C114.347 20.4533 114.188 35.0613 114.188 35.0613L119.576 34.7233C119.691 34.3836 120.428 15.6482 113.724 13.927C108.718 12.642 105.957 17.5495 105.957 17.5495C105.957 17.5495 105.047 14.1492 101.236 13.9082C98.2161 13.7187 96.6066 15.5867 96.6066 15.5867L96.6168 13.21L91.0713 13.7525L92.0964 35.5129H92.0959Z" fill="black"/>
<path id="Vector_69" d="M92.0959 34.3646L98.023 33.9063L97.6158 21.5704C97.6158 21.5704 98.4382 18.4056 100.978 18.8694C103.276 19.2872 103.219 27.0105 103.423 33.6886L109.361 33.7129C109.361 33.7129 108.233 18.85 111.47 19.0922C114.347 19.3033 114.188 33.9124 114.188 33.9124L119.576 33.5738C119.691 33.2347 120.428 14.4994 113.724 12.7782C108.718 11.4925 105.957 16.4001 105.957 16.4001C105.957 16.4001 105.047 13.0004 101.236 12.7588C98.2161 12.5693 96.6066 14.4379 96.6066 14.4379L96.6168 12.0605L91.0713 12.6031L92.0964 34.3646H92.0959Z" fill="white"/>
<path id="Vector_70" d="M100.978 17.96C98.4381 17.4962 97.6157 20.6615 97.6157 20.6615L97.6425 21.4783C97.7951 20.9796 98.6864 18.4515 100.978 18.8694C101.99 19.0533 102.544 20.6537 102.867 22.9562C102.621 20.1738 102.116 18.1667 100.978 17.96Z" fill="#ACACAC"/>
<path id="Vector_71" d="M109.361 33.713C109.361 33.713 109.335 33.3728 109.302 32.8042L103.397 32.8214C103.405 33.1118 103.413 33.4016 103.423 33.6886L109.361 33.713Z" fill="#ACACAC"/>
<path id="Vector_72" d="M98.0228 33.9064L97.9932 32.9993L92.0513 33.4215L92.0957 34.3647L98.0228 33.9064Z" fill="#ACACAC"/>
<path id="Vector_73" d="M111.47 18.1834C109.496 18.0354 109.146 23.5021 109.173 27.7924C109.202 23.6783 109.634 18.9547 111.47 19.0922C112.504 19.1681 113.146 21.1093 113.543 23.5597C113.232 20.6937 112.627 18.2681 111.47 18.1828V18.1834Z" fill="#ACACAC"/>
<path id="Vector_74" d="M119.654 30.6169C119.644 31.8239 119.598 32.5991 119.576 32.6651L114.188 33.0353C114.191 33.5844 114.188 33.913 114.188 33.913L119.576 33.5745C119.604 33.4924 119.666 32.3381 119.654 30.6169Z" fill="#ACACAC"/>
<path id="Vector_75" opacity="0.6" d="M96.6169 12.0605L91.0708 12.6031L91.1158 13.5562L96.6124 13.0176L96.6169 12.0605Z" fill="#FAFFF4"/>
<path id="Vector_76" opacity="0.6" d="M113.723 12.7782C108.718 11.4926 105.957 16.4001 105.957 16.4001C105.957 16.4001 105.046 13.0004 101.235 12.7588C98.2587 12.5726 96.6555 14.3803 96.6099 14.4323L96.606 15.3938C96.606 15.3938 98.216 13.5263 101.235 13.7158C105.046 13.9574 105.957 17.3572 105.957 17.3572C105.957 17.3572 108.718 12.4485 113.723 13.7341C118.806 15.0386 119.612 26.1144 119.653 31.5484C119.695 26.5932 119.126 14.1647 113.723 12.7782Z" fill="#FAFFF4"/>
<path id="Vector_77" d="M4.52832 18.6578C4.52832 18.6578 6.03587 10.9119 14.3522 10.6553C22.4345 10.4065 23.3121 18.0161 23.5029 34.2206L17.6458 34.3237L17.4442 32.6668C17.4442 32.6668 7.50869 34.5831 6.213 27.931C5.15253 22.4654 11.6332 19.6442 17.1993 20.5713C17.1993 20.5713 18.057 16.91 14.6227 16.224C11.2699 15.5562 10.0374 19.5051 10.0374 19.5051L4.52832 18.6573V18.6578ZM11.0734 26.7169C11.0614 29.425 17.7216 28.3394 17.7216 28.3394L17.6999 25.3963C17.6999 25.3963 11.0859 23.7749 11.074 26.7169H11.0734Z" fill="black"/>
<path id="Vector_78" d="M14.5002 9.79472C6.1844 10.0513 4.67627 17.7967 4.67627 17.7967L10.1854 18.6456C10.1854 18.6456 11.4178 14.6956 14.7695 15.3628C18.2044 16.0494 17.3467 19.7096 17.3467 19.7096C11.7806 18.7831 5.29934 21.6048 6.36038 27.0704C7.65664 33.7219 17.5927 31.8051 17.5927 31.8051L17.7932 33.4631L23.6503 33.3595C23.4589 17.1555 22.5813 9.54591 14.4996 9.79472H14.5002ZM11.2213 25.8557C11.2327 22.9137 17.8467 24.5341 17.8467 24.5341L17.8684 27.4783C17.8684 27.4783 11.2088 28.5633 11.2213 25.8557Z" fill="white"/>
<path id="Vector_79" d="M17.8467 24.5341C17.8467 24.5341 17.828 24.5296 17.8018 24.5247L17.8496 24.8976L17.8467 24.5341Z" fill="#7AB31D"/>
<path id="Vector_80" opacity="0.6" d="M17.8502 24.8975L17.869 27.4781C17.869 27.4781 11.943 28.352 11.2368 26.2108C11.6344 29.2791 18.2432 27.9592 18.2432 27.9592L17.8502 24.8975Z" fill="#FAFFF4"/>
<path id="Vector_81" opacity="0.6" d="M17.5439 20.1883C17.5439 20.1883 17.8873 18.7071 17.2551 17.4519C17.6111 18.5757 17.348 19.7095 17.348 19.7095C11.7819 18.783 5.30062 21.6047 6.36166 27.0703C6.4619 27.5851 6.61966 28.0434 6.81501 28.4601C6.71193 28.1742 6.62137 27.8744 6.55815 27.5474C5.49768 22.0824 11.979 19.2612 17.5445 20.1883H17.5439Z" fill="#FAFFF4"/>
<path id="Vector_82" d="M14.8206 14.7416C11.4672 14.0733 9.9386 18.1574 9.9386 18.1574L4.69832 17.7008C4.68408 17.7612 4.67725 17.7967 4.67725 17.7967L10.1863 18.6456C10.1863 18.6456 11.4188 14.6951 14.7705 15.3628C17.1244 15.8328 17.4627 17.6997 17.4416 18.8285C17.5618 17.989 17.707 15.3168 14.8206 14.7416Z" fill="#ACACAC"/>
<path id="Vector_83" d="M18.1902 32.7155L17.9333 31.0658C17.9333 31.0658 8.06783 33.3002 6.54604 26.6941C6.35296 25.8502 6.34385 25.0638 6.48737 24.3401C6.2271 25.1569 6.16673 26.0685 6.36094 27.0704C7.6572 33.7219 17.5933 31.8051 17.5933 31.8051L17.7938 33.4631L23.6508 33.3595C23.6469 33.0497 23.6429 32.7482 23.6383 32.4446L18.1902 32.7155Z" fill="#ACACAC"/>
<path id="Vector_84" d="M17.8471 24.534L17.8631 26.714L17.8687 26.7129L17.8471 23.7693C17.8471 23.7693 11.2331 22.1484 11.2217 25.0898C11.2206 25.2256 11.2417 25.3475 11.2718 25.4655C11.859 23.0683 17.8471 24.534 17.8471 24.534Z" fill="#ACACAC"/>
<path id="Vector_85" opacity="0.6" d="M14.5002 9.79472C6.1844 10.0513 4.67627 17.7967 4.67627 17.7967L4.93541 17.8366C5.63366 15.779 7.96305 10.9529 14.4996 10.7506C22.4201 10.5079 23.4213 17.8161 23.6372 33.3595H23.6508C23.4595 17.1555 22.5818 9.54591 14.5002 9.79472Z" fill="#FAFFF4"/>
<path id="Vector_86" d="M86.5723 18.5213L89.2337 13.4846C89.2337 13.4846 79.9287 9.34124 74.7248 13.9751C71.2154 17.1071 71.9455 21.3397 76.4277 24.2369C80.4008 26.807 82.9774 26.4235 82.3486 28.5953C81.8366 30.3619 77.3629 29.0519 74.6502 27.3346L71.7695 32.819C71.7695 32.819 84.0111 37.5747 87.9021 32.5924C90.6479 29.0713 88.9319 25.1191 85.8678 23.3353C82.3799 21.3059 78.6324 21.2394 79.0516 18.467C79.4326 15.9401 86.5723 18.5213 86.5723 18.5213Z" fill="black"/>
<path id="Vector_87" d="M86.5723 17.3727L89.2337 12.3354C89.2337 12.3354 79.9287 8.19258 74.7248 12.827C71.2154 15.9579 71.9455 20.1905 76.4277 23.0876C80.4008 25.6572 82.9774 25.2743 82.3486 27.446C81.8366 29.2121 77.3629 27.9027 74.6502 26.1853L71.7695 31.6703C71.7695 31.6703 84.0111 36.4261 87.9021 31.4437C90.6479 27.9221 88.9319 23.9704 85.8678 22.1866C82.3799 20.1573 78.6324 20.0908 79.0516 17.3178C79.4326 14.7909 86.5723 17.3721 86.5723 17.3721V17.3727Z" fill="#7AB31D"/>
<path id="Vector_88" d="M86.5723 17.3727L89.2337 12.3354C89.2337 12.3354 79.9287 8.19258 74.7248 12.827C71.2154 15.9579 71.9455 20.1905 76.4277 23.0876C80.4008 25.6572 82.9774 25.2743 82.3486 27.446C81.8366 29.2121 77.3629 27.9027 74.6502 26.1853L71.7695 31.6703C71.7695 31.6703 84.0111 36.4261 87.9021 31.4437C90.6479 27.9221 88.9319 23.9704 85.8678 22.1866C82.3799 20.1573 78.6324 20.0908 79.0516 17.3178C79.4326 14.7909 86.5723 17.3721 86.5723 17.3721V17.3727Z" fill="white"/>
<path id="Vector_89" d="M79.0032 16.7448C78.9514 17.0868 78.9639 17.386 79.0305 17.6553C79.0334 17.5456 79.034 17.4381 79.051 17.3189C79.4321 14.792 86.5717 17.3732 86.5717 17.3732L89.2332 12.336C89.2332 12.336 89.1284 12.2906 88.9438 12.2163L86.5216 16.7991C86.5216 16.7991 79.3825 14.2179 79.0026 16.7448H79.0032Z" fill="#ACACAC"/>
<path id="Vector_90" opacity="0.6" d="M85.8681 22.8572C87.7613 23.9588 89.1355 25.8878 89.2654 28.0313C89.4152 25.6252 87.9572 23.4025 85.8681 22.1867C82.7027 20.3441 79.3362 20.1136 79.0508 18.0161C78.663 20.7603 82.3928 20.834 85.8681 22.8566V22.8572Z" fill="#FAFFF4"/>
<path id="Vector_91" d="M76.5258 22.4187C73.7926 20.6515 72.4633 18.3872 72.6319 16.1812C72.109 18.5934 73.4173 21.1419 76.4278 23.0876C79.9492 25.3651 82.3675 25.3269 82.4358 26.7998C82.4381 26.7921 82.4438 26.786 82.4461 26.7771C83.0754 24.6054 80.4994 24.9872 76.5258 22.4187Z" fill="#ACACAC"/>
<path id="Vector_92" d="M89.22 26.939C89.2183 28.1647 88.8134 29.4482 87.8526 30.6789C84.3653 35.1465 74.1741 31.7895 72.0982 31.0452L71.7695 31.6709C71.7695 31.6709 84.0111 36.4266 87.9021 31.4442C89.064 29.953 89.4205 28.387 89.22 26.939Z" fill="#ACACAC"/>
<path id="Vector_93" opacity="0.6" d="M82.3609 27.3856C82.3552 27.4072 82.3546 27.4249 82.3483 27.446C81.8363 29.2121 77.3626 27.9026 74.6499 26.1853L72.9932 29.3401L74.6499 27.1423C77.3626 28.858 82.0106 29.9203 82.3603 27.385L82.3609 27.3856Z" fill="#FAFFF4"/>
<path id="Vector_94" opacity="0.6" d="M88.8182 13.1218L89.234 12.3354C89.234 12.3354 79.929 8.19258 74.7251 12.827C73.1008 14.2766 72.3957 15.9629 72.5404 17.6425C72.689 16.2871 73.4095 14.9571 74.7251 13.784C79.2751 9.73257 86.957 12.3903 88.8177 13.1218H88.8182Z" fill="#FAFFF4"/>
<path id="Vector_95" d="M43.486 20.798L43.2964 15.0547L47.2791 14.709L47.4688 5.27507L53.3008 4.90601L52.7318 14.2479L58.2079 13.7636L58.5872 19.5068L52.471 20.0371C52.4551 20.6833 52.4477 21.2984 52.4477 21.8825C52.4477 27.2494 53.1664 30.0246 54.605 30.2091C56.1855 30.4092 57.3314 29.2327 58.0427 26.6803L62.2146 27.2339C61.9304 30.9246 60.8312 33.2465 58.9193 34.2002C57.5598 34.8768 55.948 35.2148 54.0833 35.2148C53.3088 35.2148 52.5188 35.1605 51.713 35.0535C48.8209 34.669 47.319 29.8102 47.2085 20.476L43.4866 20.7991L43.486 20.798Z" fill="black"/>
<path id="Vector_96" d="M43.215 19.9457L43.0254 14.2025L47.0081 13.8567L47.1978 4.42278L53.0298 4.05371L52.4609 13.3956L57.9369 12.9113L58.3162 18.6545L52.2 19.1848C52.1841 19.831 52.1767 20.4461 52.1767 21.0302C52.1767 26.3971 52.8954 29.1723 54.3341 29.3569C55.9145 29.5569 57.0604 28.3804 57.7718 25.828L61.9436 26.3816C61.6594 30.0723 60.5602 32.3942 58.6483 33.3479C57.2888 34.0245 55.677 34.3631 53.8124 34.3631C53.0378 34.3631 52.2478 34.3088 51.442 34.2018C48.5499 33.8172 47.048 28.9584 46.9375 19.6243L43.2156 19.9473L43.215 19.9457Z" fill="white"/>
<path id="Vector_97" d="M53.0296 4.052L52.4612 13.3939H52.2915L52.8582 4.06308L53.0296 4.052Z" fill="#ACACAC"/>
<path id="Vector_98" d="M46.9376 19.6213L43.2162 19.9438L43.1929 19.2561L46.9376 18.9314C46.9404 19.1641 46.9324 19.3952 46.9376 19.6213Z" fill="#ACACAC"/>
<path id="Vector_99" d="M52.1761 21.0285C52.1761 23.0888 52.2814 24.7668 52.4933 26.0635C52.1966 24.6942 52.0474 22.789 52.0474 20.3496C52.0474 19.7656 52.0548 19.1505 52.0719 18.5043L58.1869 17.974L57.8526 12.9179L57.9363 12.9102L58.3156 18.6528L52.2006 19.1843C52.1841 19.8293 52.1761 20.4444 52.1761 21.0285Z" fill="#ACACAC"/>
<path id="Vector_100" d="M61.9436 26.3804C61.6594 30.0699 60.5608 32.393 58.6489 33.3455C57.2894 34.0222 55.6765 34.3607 53.8124 34.3607C53.0373 34.3607 52.2485 34.307 51.4414 34.1995C49.5625 33.9496 48.4725 31.7734 47.5669 27.7857C48.3785 31.3628 49.542 33.2846 51.3127 33.5195C52.1197 33.6271 52.9086 33.6819 53.6837 33.6819C55.5483 33.6819 57.1607 33.3433 58.5202 32.6667C60.3165 31.7701 61.3946 29.6671 61.7545 26.3555L61.9436 26.3804Z" fill="#ACACAC"/>
<path id="Vector_101" opacity="0.6" d="M57.9868 13.6688L52.2471 14.1758L52.2915 13.3939L57.9367 12.9102L57.9868 13.6688Z" fill="#FAFFF4"/>
<path id="Vector_102" opacity="0.6" d="M61.9438 26.3803C61.9256 26.6153 61.9039 26.8453 61.8795 27.0702L58.059 26.5637C57.3482 29.1156 56.2023 30.2921 54.6219 30.092C53.9755 30.0095 53.4731 29.4021 53.1172 28.2689C53.4395 28.9305 53.8456 29.2929 54.3343 29.3556C55.9147 29.5556 57.0595 28.3792 57.7714 25.8262L61.9438 26.3798V26.3803Z" fill="#FAFFF4"/>
<path id="Vector_103" opacity="0.6" d="M47.1986 4.42149L53.03 4.05298L52.9833 4.8105L47.1826 5.17735L47.1986 4.42149Z" fill="#FAFFF4"/>
<path id="Vector_104" opacity="0.6" d="M47.0081 14.618L43.3135 14.9394L43.215 19.9456L43.0259 14.2018L47.0081 13.8555V14.618Z" fill="#FAFFF4"/>
<path id="Vector_105" d="M99.423 67.5777C99.6708 67.524 99.9134 67.4968 100.15 67.4968C101.297 67.4968 102.035 68.0765 102.364 69.2352C102.534 69.8365 102.61 70.5275 102.591 71.3083L102.547 73.1597L101.11 73.2462L101.099 72.9923C99.2938 72.9308 98.3523 72.4992 98.2749 71.6967C98.2635 71.5815 98.2584 71.4972 98.2584 71.4429C98.2584 70.7879 98.5283 70.3779 99.0682 70.2122C99.3382 70.1296 99.6064 70.088 99.873 70.088C100.228 70.088 100.591 70.1584 100.96 70.2986C100.956 69.6796 100.949 69.3521 100.938 69.3161C100.864 69.0678 100.618 68.9276 100.2 68.895C99.8451 68.8661 99.5045 69.1543 99.1787 69.7589L97.7583 69.5428C98.1427 68.3912 98.698 67.7362 99.423 67.5777ZM100.344 71.0489C99.9556 71.0489 99.7522 71.1481 99.7334 71.346C99.7038 71.6341 100.14 71.868 101.043 72.0475L101.004 71.1138C100.746 71.0706 100.525 71.0489 100.344 71.0489Z" fill="black"/>
<path id="Vector_106" d="M106.141 73.1491L106.08 72.6199C105.477 73.0161 104.981 73.214 104.593 73.214C104.204 73.214 103.936 73.0195 103.766 72.631C103.425 71.8535 103.27 70.0902 103.3 67.34L104.609 67.2917C104.584 67.9396 104.593 68.5103 104.593 69.003C104.593 70.8029 104.772 71.7023 105.131 71.7023C105.334 71.7023 105.597 71.4429 105.919 70.9248V67.4375H107.185L107.028 73.0843L106.14 73.1491H106.141Z" fill="black"/>
<path id="Vector_107" d="M99.423 66.9244C99.6708 66.8707 99.9134 66.8435 100.15 66.8435C101.297 66.8435 102.035 67.4231 102.364 68.5819C102.534 69.1831 102.61 69.8742 102.591 70.655L102.547 72.5069L101.11 72.5934L101.099 72.3396C99.2938 72.2781 98.3523 71.8464 98.2749 71.044C98.2635 70.9287 98.2584 70.8445 98.2584 70.7902C98.2584 70.1352 98.5283 69.7251 99.0682 69.5594C99.3382 69.4768 99.6064 69.4353 99.873 69.4353C100.228 69.4353 100.591 69.5057 100.96 69.6459C100.956 69.0269 100.949 68.6994 100.938 68.6633C100.864 68.4151 100.618 68.2749 100.2 68.2422C99.8451 68.2134 99.5045 68.5015 99.1787 69.1061L97.7583 68.89C98.1427 67.7385 98.698 67.0835 99.423 66.925V66.9244ZM100.344 70.3956C99.9556 70.3956 99.7522 70.4948 99.7334 70.6926C99.7038 70.9808 100.14 71.2147 101.043 71.3942L101.004 70.4605C100.746 70.4172 100.525 70.3956 100.344 70.3956Z" fill="white"/>
<path id="Vector_108" d="M106.141 72.4958L106.08 71.9666C105.477 72.3628 104.981 72.5607 104.593 72.5607C104.204 72.5607 103.936 72.3661 103.766 71.9777C103.425 71.2002 103.27 69.4369 103.3 66.6866L104.632 66.6384C104.606 67.2862 104.593 67.857 104.593 68.3497C104.593 70.1495 104.772 71.0489 105.131 71.0489C105.334 71.0489 105.597 70.7896 105.919 70.2714V66.7842H107.206L107.028 72.431L106.14 72.4958H106.141Z" fill="white"/>
<path id="Vector_109" d="M80.9432 69.9368L82.4097 69.7595C82.4097 69.7595 82.269 67.3833 79.9755 67.6659C77.9941 67.9109 77.5322 69.3057 77.6706 70.911C77.813 72.5934 78.9361 73.4025 80.2523 73.2601C82.101 73.0634 82.5185 70.8944 82.5185 70.8944L81.0149 70.8878C81.0149 70.8878 80.8612 71.8376 80.0331 71.76C79.2084 71.6852 78.6918 69.2004 80.1208 69.13C80.7951 69.0945 80.9426 69.9374 80.9426 69.9374L80.9432 69.9368Z" fill="black"/>
<path id="Vector_110" d="M85.7556 69.3105C86.9875 69.4956 86.9852 71.8884 85.669 71.8829C84.317 71.8773 84.4776 69.1143 85.7556 69.3105ZM83.42 70.6621C83.4143 71.9505 84.084 73.2406 85.6258 73.2466C87.5035 73.255 87.7359 72.0048 87.8914 70.8704C88.0548 69.6713 87.4073 68.0675 85.8752 67.9096C83.9587 67.7123 83.4251 69.3748 83.42 70.6626V70.6621Z" fill="black"/>
<path id="Vector_111" d="M88.7182 67.8826L90.1465 67.9629L90.2439 68.6096C90.2439 68.6096 90.9502 67.7346 92.1473 68.7155C92.1473 68.7155 93.4487 67.6897 94.614 68.7858C95.4848 69.6049 95.2348 73.1154 95.2348 73.1154L93.918 73.0633C93.918 73.0633 94.0268 71.2817 93.8554 70.3181C93.746 69.6963 93.0238 69.5611 92.8809 70.2061C92.7635 70.7171 92.7926 73.0567 92.7926 73.0567L91.477 73.0151C91.477 73.0151 91.604 70.9897 91.338 70.1624C91.1165 69.4663 90.3288 69.5001 90.2126 70.2322C90.0993 70.9437 90.0873 73.1204 90.0873 73.1204L88.623 73.1376L88.7187 67.8831L88.7182 67.8826Z" fill="black"/>
<path id="Vector_112" d="M76.8978 72.5796C76.896 73.0229 76.5224 73.382 76.0674 73.3803C75.6112 73.3781 75.2438 72.7946 75.2461 72.3513C75.2478 71.9074 75.6174 71.77 76.0742 71.7727C76.5298 71.7744 76.9 72.1368 76.8978 72.5801V72.5796Z" fill="black"/>
<path id="Vector_113" d="M80.9432 69.1693L82.4097 68.9915C82.4097 68.9915 82.269 66.6152 79.9755 66.8979C77.9941 67.1428 77.5322 68.5376 77.6706 70.143C77.813 71.8254 78.9361 72.6345 80.2523 72.492C82.101 72.2953 82.5185 70.1264 82.5185 70.1264L81.0149 70.1197C81.0149 70.1197 80.8612 71.069 80.0331 70.9914C79.2084 70.9166 78.6918 68.4318 80.1208 68.3614C80.7951 68.3248 80.9426 69.1688 80.9426 69.1688L80.9432 69.1693Z" fill="white"/>
<path id="Vector_114" d="M85.7556 68.5431C86.9875 68.7282 86.9852 71.1211 85.669 71.1155C84.317 71.1105 84.4776 68.347 85.7556 68.5431ZM83.42 69.8947C83.4143 71.1831 84.084 72.4732 85.6258 72.4793C87.5035 72.487 87.7359 71.2374 87.8914 70.1036C88.0548 68.9039 87.4073 67.3002 85.8752 67.1417C83.9587 66.945 83.4251 68.608 83.42 69.8947Z" fill="white"/>
<path id="Vector_115" d="M88.7182 67.115L90.1465 67.1948L90.2439 67.8415C90.2439 67.8415 90.9502 66.9665 92.1473 67.9473C92.1473 67.9473 93.4487 66.9216 94.614 68.0183C95.4848 68.8367 95.2348 72.3473 95.2348 72.3473L93.918 72.2952C93.918 72.2952 94.0268 70.5142 93.8554 69.5494C93.746 68.9282 93.0238 68.7924 92.8809 69.4374C92.7635 69.9484 92.7926 72.288 92.7926 72.288L91.477 72.2464C91.477 72.2464 91.604 70.221 91.338 69.3937C91.1165 68.6976 90.3288 68.7315 90.2126 69.4635C90.0993 70.1745 90.0873 72.3517 90.0873 72.3517L88.623 72.3689L88.7187 67.115H88.7182Z" fill="white"/>
<path id="Vector_116" d="M76.8978 71.8121C76.896 72.2555 76.5224 72.614 76.0674 72.6123C75.6112 72.6101 75.2438 72.0271 75.2461 71.5833C75.2478 71.1394 75.6174 71.002 76.0742 71.0042C76.5298 71.0058 76.9 71.3683 76.8978 71.8121Z" fill="white"/>
<path id="Vector_117" d="M97.6629 72.5796C97.6612 73.0229 97.2876 73.382 96.8325 73.3803C96.3763 73.3781 96.009 73.0162 96.0112 72.5729C96.0129 72.129 96.3826 71.77 96.8393 71.7727C97.295 71.7744 97.6652 72.1368 97.6629 72.5801V72.5796Z" fill="black"/>
<path id="Vector_118" d="M97.6629 71.8121C97.6612 72.2554 97.2876 72.614 96.8325 72.6123C96.3763 72.6101 96.009 72.2488 96.0112 71.8049C96.0129 71.361 96.3826 71.0019 96.8393 71.0042C97.295 71.0058 97.6652 71.3682 97.6629 71.8121Z" fill="white"/>
</g>
</svg>
